<?xml version="1.0" encoding="iso-8859-1"?>
<!-- Uploaded to: SVG Repo, www.svgrepo.com, Generator: SVG Repo Mixer Tools -->
<svg height="800px" width="800px" version="1.1" id="Layer_1" xmlns="http://www.w3.org/2000/svg" xmlns:xlink="http://www.w3.org/1999/xlink" 
	 viewBox="0 0 512 512" xml:space="preserve">
<path style="fill:#A4C6EC;" d="M489.412,112.941H353.882c-12.475,0-22.588,10.114-22.588,22.59c0,5.987,2.346,11.415,6.147,15.455
	L174.559,304.092c-4.119-4.381-9.952-7.133-16.441-7.133c-12.475,0-22.588,10.115-22.588,22.588v81.521
	c0,12.475,10.114,22.588,22.588,22.588h154.511l109.618,76.732c3.869,2.709,8.401,4.082,12.955,4.082
	c3.567,0,7.148-0.843,10.43-2.551c7.471-3.89,12.157-11.613,12.157-20.037v-58.226h31.624c12.475,0,22.588-10.113,22.588-22.588
	V135.531C512,123.055,501.887,112.941,489.412,112.941z"/>
<path style="fill:#F5F5F6;" d="M353.882,7.529H22.588C10.114,7.529,0,17.643,0,30.118v265.538c0,12.475,10.114,22.588,22.588,22.588
	h31.624v58.226c0,8.424,4.686,16.148,12.157,20.037c3.281,1.708,6.862,2.551,10.43,2.551c4.552,0,9.086-1.373,12.955-4.082
	l109.618-76.732h154.511c12.475,0,22.588-10.113,22.588-22.588V30.118C376.471,17.643,366.357,7.529,353.882,7.529z"/>
<path style="fill:#D6E5F6;" d="M353.882,7.529H199.371v310.715h154.511c12.475,0,22.588-10.113,22.588-22.588V30.118
	C376.471,17.643,366.357,7.529,353.882,7.529z"/>
<g>
	<path style="fill:#1D3366;" d="M112.941,143.06h150.588c12.475,0,22.588-10.114,22.588-22.59c0-12.475-10.113-22.588-22.588-22.588
		H112.941c-12.475,0-22.588,10.114-22.588,22.588C90.353,132.947,100.466,143.06,112.941,143.06z"/>
	<path style="fill:#1D3366;" d="M263.529,188.237H112.941c-12.475,0-22.588,10.113-22.588,22.588
		c0,12.475,10.114,22.587,22.588,22.587h150.588c12.475,0,22.588-10.112,22.588-22.587
		C286.118,198.35,276.004,188.237,263.529,188.237z"/>
</g>
</svg>