<?xml version="1.0" encoding="utf-8"?>
<!-- Uploaded to: SVG Repo, www.svgrepo.com, Generator: SVG Repo Mixer Tools -->
<svg xmlns="http://www.w3.org/2000/svg" xmlns:xlink="http://www.w3.org/1999/xlink" version="1.1" id="settingsoptions"  viewBox="0 0 227.6167 222.3201" enable-background="new 0 0 227.6167 222.3201" xml:space="preserve" width="512" height="512">
<g>
	<path fill="#D0E8FF" d="M100.0117,162.3201h-4.8125c-1.9023,0-3.543-1.3398-3.9219-3.2051   c-0.9141-4.5234-2.6797-8.7773-5.2422-12.6445c-1.0508-1.5859-0.8359-3.6914,0.5078-5.0371l3.4062-3.4062   c1.5547-1.5547,1.5508-4.0898-0.0078-5.6484c-0.7617-0.7637-1.7656-1.1816-2.8281-1.1816c-0.0039,0-0.0039,0-0.0039,0   c-1.0586,0-2.0586,0.416-2.8125,1.1719l-3.4102,3.4082c-1.3477,1.3457-3.457,1.5566-5.0352,0.5039   c-3.8672-2.5586-8.1211-4.3223-12.6445-5.2402c-1.8672-0.377-3.207-2.0176-3.207-3.9199v-4.8125c0-2.1992-1.793-3.9883-4-3.9883   c-2.2422,0-4,1.752-4,3.9883v4.8125c0,1.9023-1.3398,3.543-3.207,3.9199c-4.5234,0.918-8.7773,2.6816-12.6445,5.2402   c-1.5781,1.0527-3.6875,0.8418-5.0352-0.5039l-3.4062-3.4043c-1.5625-1.5625-4.0938-1.5527-5.6484,0.0059   c-0.7617,0.7637-1.1836,1.7695-1.1797,2.832c0,1.0605,0.4141,2.0605,1.1719,2.8145l3.4023,3.4102   c1.3438,1.3438,1.5547,3.4492,0.5078,5.0332c-2.5586,3.8691-4.3242,8.125-5.2383,12.6465   c-0.3789,1.8652-2.0195,3.2051-3.9219,3.2051h-4.8125c-2.1992,0-3.9883,1.7949-3.9883,4s1.7891,4,3.9883,4h4.8125   c1.9023,0,3.543,1.3398,3.9219,3.2051c0.9141,4.5215,2.6797,8.7773,5.2383,12.6465c1.0469,1.584,0.8359,3.6895-0.5078,5.0332   l-3.4023,3.4062c-1.5547,1.5566-1.5508,4.0918,0.0078,5.6504c0.7617,0.7637,1.7656,1.1816,2.8281,1.1816c0,0,0,0,0.0039,0   c1.0586,0,2.0586-0.418,2.8164-1.1738l3.4062-3.4062c0.7734-0.7715,1.7969-1.1699,2.8281-1.1699   c0.7656,0,1.5352,0.2188,2.207,0.666c3.8672,2.5586,8.1211,4.3223,12.6445,5.2402c1.8672,0.377,3.207,2.0176,3.207,3.9199v4.8125   c0,2.1992,1.793,3.9883,4,3.9883c2.2422,0,4-1.752,4-3.9883v-4.8125c0-1.9023,1.3398-3.543,3.207-3.9199   c4.5234-0.918,8.7773-2.6816,12.6445-5.2402c1.5781-1.0488,3.6875-0.8398,5.0352,0.5039l3.4062,3.4043   c1.5586,1.5605,4.0898,1.5508,5.6484-0.0059c0.7617-0.7637,1.1836-1.7695,1.1797-2.832c0-1.0605-0.4141-2.0605-1.1719-2.8145   l-3.4062-3.4082c-1.3438-1.3457-1.5586-3.4512-0.5078-5.0371c2.5625-3.8672,4.3281-8.1211,5.2422-12.6445   c0.3789-1.8652,2.0195-3.2051,3.9219-3.2051h4.8125c2.1992,0,3.9883-1.7949,3.9883-4S102.2109,162.3201,100.0117,162.3201z    M56,182.3201c-8.8242,0-16-7.1777-16-16s7.1758-16,16-16s16,7.1777,16,16S64.8242,182.3201,56,182.3201z"/>
	<path fill="#D0E8FF" d="M103.9141,57.5505c0.082-1.9023,1.4922-3.4824,3.3711-3.7793l4.0234-0.6367   c0.7266-0.1152,1.3633-0.5078,1.7969-1.1035c0.4336-0.5996,0.6094-1.3301,0.4961-2.0605   c-0.2422-1.5371-1.6289-2.5703-3.1602-2.3047l-4.0234,0.6367c-1.8438,0.3027-3.7031-0.7656-4.3711-2.5508   c-1.3477-3.5996-3.3398-6.8555-5.9297-9.6777c-1.2852-1.4004-1.4062-3.5137-0.2891-5.0527l2.3906-3.2949   c0.4336-0.5977,0.6094-1.3242,0.4961-2.0508c-0.1172-0.7324-0.5117-1.375-1.1094-1.8105C97,23.4255,96.2773,23.24,95.5391,23.3611   c-0.7227,0.1152-1.3594,0.5078-1.793,1.1055l-2.3984,3.2969c-1.1172,1.541-3.1602,2.0801-4.8945,1.2871   c-3.4844-1.5898-7.1992-2.4785-11.0352-2.6445c-1.9023-0.082-3.4805-1.4922-3.7773-3.3711l-0.6367-4.0254   c-0.2422-1.498-1.6602-2.5449-3.168-2.291c-0.7383,0.1172-1.3828,0.5098-1.8164,1.1055c-0.4297,0.5918-0.6016,1.3203-0.4883,2.0488   l0.6367,4.0293c0.3008,1.8789-0.7695,3.707-2.5508,4.373c-3.5938,1.3418-6.8516,3.3359-9.6758,5.9258   c-1.4023,1.2891-3.5156,1.4102-5.0547,0.2891l-3.2969-2.3945c-1.2188-0.8867-2.9609-0.6172-3.8594,0.6211   c-0.4375,0.6035-0.6172,1.3359-0.5039,2.0625c0.1172,0.7227,0.5078,1.3613,1.1094,1.7969l3.2969,2.3945   c1.5391,1.1191,2.0781,3.168,1.2852,4.8984c-1.5898,3.4805-2.4805,7.1914-2.6445,11.0312   c-0.082,1.9023-1.4922,3.4824-3.3711,3.7793l-4.0273,0.6367c-1.5,0.2383-2.5273,1.6602-2.2891,3.1699   c0.2383,1.5293,1.6133,2.5566,3.1562,2.3008l4.0273-0.6387c1.8672-0.2871,3.707,0.7695,4.3711,2.5547   c1.3398,3.5918,3.3359,6.8477,5.9297,9.6758c1.2852,1.4023,1.4062,3.5156,0.2852,5.0547l-2.3945,3.293   c-0.8906,1.2305-0.6133,2.9629,0.6211,3.8594c1.2617,0.9141,2.9531,0.6484,3.8633-0.6035l2.3945-3.2949   c0.7695-1.0625,1.9883-1.6484,3.2344-1.6484c0.5586,0,1.125,0.1172,1.6602,0.3613c3.4844,1.5879,7.1953,2.4785,11.0352,2.6465   c1.8984,0.082,3.4766,1.4902,3.7734,3.3672l0.6406,4.0234c0.1172,0.7305,0.5078,1.3691,1.1055,1.8027   c0.5938,0.4316,1.3164,0.6113,2.0625,0.4922c1.5312-0.2422,2.543-1.6309,2.3047-3.1602l-0.6367-4.0215   c-0.2969-1.877,0.7656-3.7051,2.5469-4.3711c3.6016-1.3477,6.8594-3.3418,9.6797-5.9277c1.4062-1.2891,3.5234-1.4043,5.0547-0.2891   l3.293,2.3926c0.5898,0.4297,1.3242,0.5957,2.0469,0.4922c0.7344-0.1172,1.375-0.5098,1.8086-1.1094   c0.4414-0.6074,0.6211-1.3398,0.5078-2.0664c-0.1172-0.7227-0.5117-1.3613-1.1094-1.7988l-3.293-2.3906   c-1.5391-1.1172-2.0781-3.1641-1.2891-4.8945C102.8594,65.0955,103.7499,61.3806,103.9141,57.5505z M85.5469,64.5427l-0.0039,0.002   c-2.7656,3.8066-7.0898,5.8301-11.4688,5.8301c-2.8867,0-5.793-0.877-8.3008-2.6973c-3.0586-2.2227-5.0703-5.5039-5.6602-9.2383   c-0.5898-3.7324,0.3086-7.4746,2.5312-10.5332c4.582-6.3105,13.4492-7.7207,19.7695-3.1309   C88.7266,49.3611,90.1289,58.2283,85.5469,64.5427z"/>
	<path fill="#5CB0FF" d="M219.4805,109.4763c-0.5977-2.4062-2.9414-3.8086-5.3398-3.2207l-4.9102,1.2246   c-1.8516,0.459-3.7578-0.4414-4.5781-2.1602c-2.1055-4.4121-5.0039-8.3281-8.6211-11.6406   c-1.4023-1.2852-1.707-3.3789-0.7266-5.0098l2.6094-4.3418c0.6055-1.0059,0.7812-2.1895,0.4961-3.332   c-0.2891-1.1445-1-2.1074-2.0117-2.7148c-1.0195-0.6133-2.2109-0.7949-3.3516-0.5117c-1.1367,0.2832-2.0977,0.998-2.7031,2.0098   l-2.6094,4.3438c-0.9844,1.6309-2.9766,2.3477-4.7656,1.709c-4.6133-1.6367-9.4258-2.3652-14.3203-2.1445   c-1.875,0.0449-3.5977-1.1836-4.0586-3.0293l-1.2227-4.9121c-0.5859-2.3535-2.9883-3.7969-5.3477-3.2031   c-2.3633,0.5898-3.8125,2.9863-3.2227,5.3418l1.2227,4.9102c0.4648,1.8457-0.4414,3.7617-2.1602,4.5801   c-4.4062,2.0996-8.3242,4.998-11.6367,8.6152c-1.2852,1.4043-3.375,1.7109-5.0078,0.7285l-4.3438-2.6074   c-1.0039-0.6016-2.1875-0.7832-3.332-0.4961c-1.1484,0.2852-2.1133,1-2.7188,2.0117c-0.6133,1.0195-0.7969,2.209-0.5117,3.3477   c0.2852,1.1367,1,2.0977,2.0117,2.7051l4.3438,2.6094c1.6328,0.9805,2.3477,2.9746,1.7109,4.7695   c-1.6406,4.6133-2.3594,9.4297-2.1445,14.3164c0.0859,1.8984-1.1836,3.5957-3.0273,4.0566l-4.9141,1.2266   c-1.1406,0.2852-2.1016,0.9961-2.707,2.0059s-0.7852,2.1973-0.4961,3.3418c0.5938,2.4004,2.9258,3.8203,5.3438,3.2227   l4.9062-1.2266c1.8672-0.457,3.7617,0.4434,4.5781,2.1602c2.1055,4.4121,5.0039,8.3281,8.6211,11.6406   c1.4023,1.2852,1.707,3.3789,0.7266,5.0098l-2.6094,4.3418c-0.6055,1.0059-0.7812,2.1895-0.4961,3.332   c0.2891,1.1445,1,2.1074,2.0117,2.7148c1.0273,0.6152,2.2188,0.8008,3.3516,0.5117c1.1367-0.2832,2.0977-0.998,2.7031-2.0098   l2.6055-4.3398c0.9805-1.6348,2.9805-2.3477,4.7656-1.7129c4.6211,1.6367,9.4453,2.3672,14.3242,2.1445   c0.0586-0.002,0.1172-0.0039,0.1758-0.0039c1.8281,0,3.4336,1.2441,3.8828,3.0312l1.2227,4.9121   c0.2852,1.1406,1,2.1016,2.0078,2.707c1.0117,0.6074,2.2031,0.7871,3.3398,0.498c1.1562-0.2891,2.125-1.002,2.7305-2.0078   c0.6016-1.0039,0.7773-2.1855,0.4922-3.332l-1.2266-4.9141c-0.457-1.8457,0.4453-3.7598,2.1641-4.5781   c4.4062-2.0996,8.3242-4.998,11.6367-8.6152c1.2891-1.4023,3.3828-1.7031,5.0078-0.7285l4.3438,2.6094   c1.0078,0.6074,2.1836,0.7832,3.332,0.4941c1.1445-0.2852,2.1094-1,2.7148-2.0098c0.6172-1.0234,0.7969-2.2129,0.5117-3.3516   c-0.2812-1.1348-0.9961-2.0957-2.0078-2.7031l-4.3438-2.6074c-1.6328-0.9805-2.3477-2.9746-1.7109-4.7676   c1.6406-4.6152,2.3594-9.4336,2.1445-14.3203c-0.086-1.9004,1.1836-3.5977,3.0273-4.0566l4.9141-1.2246   C218.6328,114.238,220.0703,111.8376,219.4805,109.4763z M174.3047,137.8708c-1.3438,0.3359-2.6953,0.4961-4.0195,0.4961   c-7.4531,0-14.2461-5.0547-16.1328-12.6035c-1.0742-4.3086-0.4062-8.7773,1.8828-12.584c2.2852-3.8066,5.918-6.4941,10.2266-7.5684   c4.3164-1.0781,8.7852-0.4043,12.582,1.8809c3.8047,2.2871,6.4922,5.918,7.5703,10.2266   C188.6289,126.613,183.1992,135.6521,174.3047,137.8708z"/>
	<path fill="#1C71DA" d="M56,150.3201c-8.8242,0-16,7.1777-16,16s7.1758,16,16,16s16-7.1777,16-16S64.8242,150.3201,56,150.3201z    M56,174.3201c-4.4102,0-8-3.5879-8-8s3.5898-8,8-8s8,3.5879,8,8S60.4102,174.3201,56,174.3201z"/>
	<path fill="#1C71DA" d="M100.0117,154.3201h-1.668c-0.9297-3.2969-2.2422-6.459-3.9219-9.4551l1.1836-1.1816   c4.6758-4.6738,4.6719-12.2832-0.0078-16.9609c-2.2734-2.2734-5.2852-3.5254-8.4844-3.5254c-0.0039,0-0.0078,0-0.0078,0   c-3.1992,0.002-6.207,1.252-8.4688,3.5156l-1.1836,1.1836c-2.9922-1.6777-6.1562-2.9902-9.4531-3.9199v-1.668   c0-6.6113-5.3828-11.9883-12-11.9883s-12,5.377-12,11.9883v1.668c-3.2969,0.9297-6.4609,2.2422-9.4531,3.9199l-1.1836-1.1816   c-4.6758-4.6738-12.2852-4.6699-16.9609,0.0078c-2.2734,2.2754-3.5273,5.293-3.5234,8.4922c0,3.1973,1.25,6.2051,3.5156,8.4668   l1.1797,1.1836c-1.6758,2.9961-2.9883,6.1602-3.918,9.4551h-1.668c-6.6094,0-11.9883,5.3828-11.9883,12s5.3789,12,11.9883,12h1.668   c0.9297,3.2949,2.2422,6.459,3.918,9.4551l-1.1797,1.1816c-4.6758,4.6738-4.6719,12.2832,0.0078,16.9609   c2.2734,2.2734,5.2852,3.5254,8.4844,3.5254c0.0039,0,0.0039,0,0.0078,0c3.1953-0.002,6.2031-1.25,8.4688-3.5156l1.1836-1.1836   c2.9922,1.6777,6.1562,2.9902,9.4531,3.9199v1.668c0,6.6113,5.3828,11.9883,12,11.9883s12-5.377,12-11.9883v-1.668   c3.2969-0.9297,6.4609-2.2422,9.4531-3.9199l1.1836,1.1816c4.6758,4.6758,12.2852,4.668,16.9609-0.0078   c2.2734-2.2754,3.5273-5.293,3.5234-8.4922c0-3.1973-1.25-6.2051-3.5156-8.4688l-1.1836-1.1816   c1.6797-2.9961,2.9922-6.1582,3.9219-9.4551h1.668c6.6094,0,11.9883-5.3828,11.9883-12S106.6211,154.3201,100.0117,154.3201z    M100.0117,170.3201h-4.8125c-1.9023,0-3.543,1.3398-3.9219,3.2051c-0.9141,4.5234-2.6797,8.7773-5.2422,12.6445   c-1.0508,1.5859-0.8359,3.6914,0.5078,5.0371l3.4062,3.4082c0.7578,0.7539,1.1719,1.7539,1.1719,2.8145   c0.0039,1.0625-0.418,2.0684-1.1797,2.832c-1.5586,1.5566-4.0898,1.5664-5.6484,0.0059l-3.4062-3.4043   c-1.3477-1.3438-3.457-1.5527-5.0352-0.5039c-3.8672,2.5586-8.1211,4.3223-12.6445,5.2402c-1.8672,0.377-3.207,2.0176-3.207,3.9199   v4.8125c0,2.2363-1.7578,3.9883-4,3.9883c-2.207,0-4-1.7891-4-3.9883v-4.8125c0-1.9023-1.3398-3.543-3.207-3.9199   c-4.5234-0.918-8.7773-2.6816-12.6445-5.2402c-0.6719-0.4473-1.4414-0.666-2.207-0.666c-1.0312,0-2.0547,0.3984-2.8281,1.1699   l-3.4062,3.4062c-0.7578,0.7559-1.7578,1.1738-2.8164,1.1738c-0.0039,0-0.0039,0-0.0039,0c-1.0625,0-2.0664-0.418-2.8281-1.1816   c-1.5586-1.5586-1.5625-4.0938-0.0078-5.6504l3.4023-3.4062c1.3438-1.3438,1.5547-3.4492,0.5078-5.0332   c-2.5586-3.8691-4.3242-8.125-5.2383-12.6465c-0.3789-1.8652-2.0195-3.2051-3.9219-3.2051h-4.8125   c-2.1992,0-3.9883-1.7949-3.9883-4s1.7891-4,3.9883-4h4.8125c1.9023,0,3.543-1.3398,3.9219-3.2051   c0.9141-4.5215,2.6797-8.7773,5.2383-12.6465c1.0469-1.584,0.8359-3.6895-0.5078-5.0332l-3.4023-3.4102   c-0.7578-0.7539-1.1719-1.7539-1.1719-2.8145c-0.0039-1.0625,0.418-2.0684,1.1797-2.832c1.5547-1.5586,4.0859-1.5684,5.6484-0.0059   l3.4062,3.4043c1.3477,1.3457,3.457,1.5566,5.0352,0.5039c3.8672-2.5586,8.1211-4.3223,12.6445-5.2402   c1.8672-0.377,3.207-2.0176,3.207-3.9199v-4.8125c0-2.2363,1.7578-3.9883,4-3.9883c2.207,0,4,1.7891,4,3.9883v4.8125   c0,1.9023,1.3398,3.543,3.207,3.9199c4.5234,0.918,8.7773,2.6816,12.6445,5.2402c1.5781,1.0527,3.6875,0.8418,5.0352-0.5039   l3.4102-3.4082c0.7539-0.7559,1.7539-1.1719,2.8125-1.1719c0,0,0,0,0.0039,0c1.0625,0,2.0664,0.418,2.8281,1.1816   c1.5586,1.5586,1.5625,4.0938,0.0078,5.6484l-3.4062,3.4062c-1.3438,1.3457-1.5586,3.4512-0.5078,5.0371   c2.5625,3.8672,4.3281,8.1211,5.2422,12.6445c0.3789,1.8652,2.0195,3.2051,3.9219,3.2051h4.8125c2.1992,0,3.9883,1.7949,3.9883,4   S102.2109,170.3201,100.0117,170.3201z"/>
	<path fill="#1C71DA" d="M178.8438,107.4919c-3.7969-2.2852-8.2656-2.959-12.582-1.8809   c-4.3086,1.0742-7.9414,3.7617-10.2266,7.5684c-2.2891,3.8066-2.957,8.2754-1.8828,12.584   c1.8867,7.5488,8.6797,12.6035,16.1328,12.6035c1.3242,0,2.6758-0.1602,4.0195-0.4961   c8.8945-2.2188,14.3242-11.2578,12.1094-20.1523C185.3359,113.4099,182.6484,109.7791,178.8438,107.4919z M177.6758,126.1833   c-1.1875,1.9727-3.0703,3.3672-5.3086,3.9258c-4.6055,1.1523-9.2969-1.668-10.4492-6.2832   c-0.5586-2.2344-0.2109-4.5508,0.9727-6.5254c1.1875-1.9746,3.0703-3.3691,5.3086-3.9277   c0.6953-0.1738,1.4023-0.2598,2.1016-0.2598c1.543,0,3.0625,0.418,4.4219,1.2344c1.9766,1.1875,3.3711,3.0723,3.9258,5.3086   C179.207,121.8904,178.8633,124.2087,177.6758,126.1833z"/>
	<path fill="#1C71DA" d="M218.2148,122.5876c6.6367-1.6582,10.6875-8.4082,9.0312-15.0488   c-1.6562-6.6445-8.4102-10.6953-15.043-9.0449l-1.8516,0.4629c-1.8242-3.2148-4.0195-6.1797-6.5664-8.8672l0.9883-1.6426   c1.7031-2.8379,2.1992-6.1738,1.3984-9.3906c-0.8047-3.2168-2.8125-5.9277-5.6523-7.6328   c-2.8555-1.7188-6.1836-2.2246-9.4102-1.416c-3.207,0.8008-5.9141,2.8086-7.625,5.6504L182.5,77.3005   c-3.5664-0.9844-7.2148-1.5312-10.9062-1.6328l-0.4648-1.8594c-1.6562-6.6309-8.3945-10.6934-15.0469-9.0273   c-6.6406,1.6562-10.7031,8.4023-9.0469,15.0391l0.4609,1.8555c-3.2109,1.8223-6.1758,4.0176-8.8633,6.5625l-1.6406-0.9844   c-2.8398-1.707-6.1719-2.2109-9.3945-1.4004c-3.2148,0.8027-5.9297,2.8105-7.6367,5.6523   c-1.7148,2.8555-2.2148,6.1973-1.4102,9.4102c0.8008,3.207,2.8086,5.9141,5.6523,7.623l1.6406,0.9844   c-0.9883,3.5645-1.5352,7.2148-1.6328,10.9082l-1.8594,0.4648c-3.2109,0.8008-5.9219,2.8066-7.6289,5.6504   c-1.707,2.8418-2.2031,6.1797-1.4023,9.3965c1.6562,6.6426,8.4141,10.7012,15.043,9.0469l1.8555-0.4629   c1.8203,3.2129,4.0156,6.1777,6.5625,8.8652l-0.9883,1.6426c-1.7031,2.8379-2.1992,6.1738-1.3984,9.3906   c0.8047,3.2168,2.8125,5.9277,5.6523,7.6328c2.8555,1.7168,6.1875,2.2207,9.4102,1.416c3.207-0.8008,5.9141-2.8086,7.625-5.6543   l0.9844-1.6387c3.5664,0.9844,7.2148,1.5312,10.9102,1.6328l0.4609,1.8555c0.8008,3.2148,2.8086,5.9238,5.6523,7.6309   c1.9531,1.1738,4.1445,1.7754,6.3672,1.7754c1.0078,0,2.0234-0.125,3.0273-0.375c3.2305-0.8047,5.9492-2.8125,7.6523-5.6523   c1.7031-2.8359,2.1953-6.1699,1.3945-9.3848l-0.4648-1.8555c3.2148-1.8223,6.1797-4.0195,8.8672-6.5645l1.6445,0.9883   c2.8359,1.7051,6.168,2.1953,9.3906,1.3965c3.2148-0.8047,5.9258-2.8125,7.6289-5.6504c1.7188-2.8535,2.2227-6.1973,1.418-9.4121   c-0.8008-3.207-2.8086-5.9141-5.6523-7.623l-1.6406-0.9844c0.9883-3.5645,1.5352-7.2129,1.6328-10.9082L218.2148,122.5876z    M211.3633,116.0505c-1.8438,0.459-3.1133,2.1562-3.0273,4.0566c0.2148,4.8867-0.5039,9.7051-2.1445,14.3203   c-0.6367,1.793,0.0781,3.7871,1.7109,4.7676l4.3438,2.6074c1.0117,0.6074,1.7266,1.5684,2.0078,2.7031   c0.2852,1.1387,0.1055,2.3281-0.5117,3.3516c-0.6055,1.0098-1.5703,1.7246-2.7148,2.0098   c-1.1484,0.2891-2.3242,0.1133-3.332-0.4941l-4.3438-2.6094c-1.625-0.9746-3.7188-0.6738-5.0078,0.7285   c-3.3125,3.6172-7.2305,6.5156-11.6367,8.6152c-1.7188,0.8184-2.6211,2.7324-2.1641,4.5781l1.2266,4.9141   c0.2852,1.1465,0.1094,2.3281-0.4922,3.332c-0.6055,1.0059-1.5742,1.7188-2.7305,2.0078c-1.1367,0.2891-2.3281,0.1094-3.3398-0.498   c-1.0078-0.6055-1.7227-1.5664-2.0078-2.707l-1.2227-4.9121c-0.4492-1.7871-2.0547-3.0312-3.8828-3.0312   c-0.0586,0-0.1172,0.002-0.1758,0.0039c-4.8789,0.2227-9.7031-0.5078-14.3242-2.1445c-1.7852-0.6348-3.7852,0.0781-4.7656,1.7129   l-2.6055,4.3398c-0.6055,1.0117-1.5664,1.7266-2.7031,2.0098c-1.1328,0.2891-2.3242,0.1035-3.3516-0.5117   c-1.0117-0.6074-1.7227-1.5703-2.0117-2.7148c-0.2852-1.1426-0.1094-2.3262,0.4961-3.332l2.6094-4.3418   c0.9805-1.6309,0.6758-3.7246-0.7266-5.0098c-3.6172-3.3125-6.5156-7.2285-8.6211-11.6406   c-0.8164-1.7168-2.7109-2.6172-4.5781-2.1602l-4.9062,1.2266c-2.418,0.5977-4.75-0.8223-5.3438-3.2227   c-0.2891-1.1445-0.1094-2.332,0.4961-3.3418s1.5664-1.7207,2.707-2.0059l4.9141-1.2266c1.8438-0.4609,3.1133-2.1582,3.0273-4.0566   c-0.2148-4.8867,0.5039-9.7031,2.1445-14.3164c0.6367-1.7949-0.0781-3.7891-1.7109-4.7695l-4.3438-2.6094   c-1.0117-0.6074-1.7266-1.5684-2.0117-2.7051c-0.2852-1.1387-0.1016-2.3281,0.5117-3.3477   c0.6055-1.0117,1.5703-1.7266,2.7188-2.0117c1.1445-0.2871,2.3281-0.1055,3.332,0.4961l4.3438,2.6074   c1.6328,0.9824,3.7227,0.6758,5.0078-0.7285c3.3125-3.6172,7.2305-6.5156,11.6367-8.6152c1.7188-0.8184,2.625-2.7344,2.1602-4.5801   l-1.2227-4.9102c-0.5898-2.3555,0.8594-4.752,3.2227-5.3418c2.3594-0.5938,4.7617,0.8496,5.3477,3.2031l1.2227,4.9121   c0.4609,1.8457,2.1836,3.0742,4.0586,3.0293c4.8945-0.2207,9.707,0.5078,14.3203,2.1445c1.7891,0.6387,3.7812-0.0781,4.7656-1.709   l2.6094-4.3438c0.6055-1.0117,1.5664-1.7266,2.7031-2.0098c1.1406-0.2832,2.332-0.1016,3.3516,0.5117   c1.0117,0.6074,1.7227,1.5703,2.0117,2.7148c0.2852,1.1426,0.1094,2.3262-0.4961,3.332l-2.6094,4.3418   c-0.9805,1.6309-0.6758,3.7246,0.7266,5.0098c3.6172,3.3125,6.5156,7.2285,8.6211,11.6406   c0.8203,1.7188,2.7266,2.6191,4.5781,2.1602l4.9102-1.2246c2.3984-0.5879,4.7422,0.8145,5.3398,3.2207   c0.5898,2.3613-0.8477,4.7617-3.2031,5.3496L211.3633,116.0505z"/>
	<path fill="#1C71DA" d="M82.4141,44.7751c-6.3203-4.5898-15.1875-3.1797-19.7695,3.1309   c-2.2227,3.0586-3.1211,6.8008-2.5312,10.5332c0.5898,3.7344,2.6016,7.0156,5.6602,9.2383   c2.5078,1.8203,5.4141,2.6973,8.3008,2.6973c4.3789,0,8.7031-2.0234,11.4688-5.8301l0.0039-0.002   C90.1289,58.2283,88.7266,49.3611,82.4141,44.7751z M79.0742,59.8416c-1.9922,2.7422-5.8477,3.3594-8.5977,1.3633   c-1.332-0.9668-2.207-2.3926-2.4609-4.0156c-0.2578-1.623,0.1328-3.25,1.0977-4.5801c1.2031-1.6562,3.082-2.5352,4.9883-2.5352   c1.2539,0,2.5195,0.3828,3.6094,1.1738C80.4531,53.24,81.0664,57.0955,79.0742,59.8416z"/>
	<path fill="#1C71DA" d="M114.8555,76.4158c-0.4492-2.8301-1.9766-5.3223-4.3047-7.0137l-0.7656-0.5566   c0.8789-2.4863,1.4922-5.0469,1.8359-7.6602l0.9375-0.1484c2.8398-0.4512,5.332-1.9805,7.0234-4.3066   c1.6875-2.3281,2.3711-5.1738,1.918-8.0137c-0.9297-5.8672-6.4805-9.8848-12.3086-8.9531l-0.9375,0.1484   c-1.1367-2.3828-2.5117-4.6289-4.1172-6.7188l0.5547-0.7637c1.6914-2.3223,2.375-5.166,1.9219-8.0059   c-0.4492-2.8438-1.9805-5.3398-4.3086-7.0293c-2.3398-1.7012-5.1953-2.3965-8.0156-1.9336   c-2.8359,0.4492-5.3281,1.9805-7.0156,4.3066l-0.5586,0.7676c-2.4844-0.8809-5.0469-1.4941-7.6641-1.8359l-0.1484-0.9434   c-0.9297-5.8574-6.4805-9.8711-12.3164-8.9395c-2.8516,0.4531-5.3516,1.9824-7.0391,4.3086   c-1.6875,2.3203-2.3672,5.1641-1.9141,8.002l0.1484,0.9395c-2.3828,1.1348-4.6289,2.5098-6.7188,4.1152l-0.7695-0.5586   c-4.793-3.4863-11.5391-2.4141-15.0312,2.3867c-1.6992,2.3359-2.3867,5.1855-1.9336,8.0254   c0.4492,2.832,1.9805,5.3242,4.3047,7.0137l0.7695,0.5586c-0.8789,2.4824-1.4961,5.041-1.8359,7.6582l-0.9414,0.1484   c-5.8555,0.9277-9.8672,6.4551-8.9414,12.3223c0.9297,5.8652,6.4766,9.8809,12.3086,8.9531l0.9414-0.1504   c1.1328,2.3809,2.5078,4.627,4.1133,6.7168l-0.5586,0.7695c-3.4844,4.7988-2.4102,11.543,2.3906,15.0332   c4.8086,3.4902,11.5469,2.4238,15.0352-2.373l0.5586-0.7695c2.4844,0.8809,5.0469,1.4961,7.6602,1.8379l0.1523,0.9355   c0.4453,2.8398,1.9766,5.334,4.3047,7.0254c1.8555,1.3477,4.0469,2.0547,6.3008,2.0547c0.5664,0,1.1406-0.0449,1.7109-0.1348   c5.8633-0.9277,9.8789-6.4492,8.9531-12.3105l-0.1484-0.9395c2.3828-1.1348,4.6289-2.5098,6.7188-4.1133l0.7656,0.5547   c2.3203,1.6875,5.1602,2.3652,8.0039,1.9219c2.8438-0.4512,5.3398-1.9805,7.0273-4.3066   C114.6211,82.1052,115.3086,79.2556,114.8555,76.4158z M102.5547,73.4822l3.293,2.3906c0.5977,0.4375,0.9922,1.0762,1.1094,1.7988   c0.1133,0.7266-0.0664,1.459-0.5078,2.0664c-0.4336,0.5996-1.0742,0.9922-1.8086,1.1094c-0.7227,0.1035-1.457-0.0625-2.0469-0.4922   l-3.293-2.3926c-1.5312-1.1152-3.6484-1-5.0547,0.2891c-2.8203,2.5859-6.0781,4.5801-9.6797,5.9277   c-1.7812,0.666-2.8438,2.4941-2.5469,4.3711l0.6367,4.0215c0.2383,1.5293-0.7734,2.918-2.3047,3.1602   c-0.7461,0.1191-1.4688-0.0605-2.0625-0.4922c-0.5977-0.4336-0.9883-1.0723-1.1055-1.8027l-0.6406-4.0234   c-0.2969-1.877-1.875-3.2852-3.7734-3.3672c-3.8398-0.168-7.5508-1.0586-11.0352-2.6465   c-0.5352-0.2441-1.1016-0.3613-1.6602-0.3613c-1.2461,0-2.4648,0.5859-3.2344,1.6484l-2.3945,3.2949   c-0.9102,1.252-2.6016,1.5176-3.8633,0.6035c-1.2344-0.8965-1.5117-2.6289-0.6211-3.8594l2.3945-3.293   c1.1211-1.5391,1-3.6523-0.2852-5.0547c-2.5938-2.8281-4.5898-6.084-5.9297-9.6758c-0.6641-1.7852-2.5039-2.8418-4.3711-2.5547   l-4.0273,0.6387c-1.543,0.2559-2.918-0.7715-3.1562-2.3008c-0.2383-1.5098,0.7891-2.9316,2.2891-3.1699l4.0273-0.6367   c1.8789-0.2969,3.2891-1.877,3.3711-3.7793c0.1641-3.8398,1.0547-7.5508,2.6445-11.0312c0.793-1.7305,0.2539-3.7793-1.2852-4.8984   l-3.2969-2.3945c-0.6016-0.4355-0.9922-1.0742-1.1094-1.7969c-0.1133-0.7266,0.0664-1.459,0.5039-2.0625   c0.8984-1.2383,2.6406-1.5078,3.8594-0.6211l3.2969,2.3945c1.5391,1.1211,3.6523,1,5.0547-0.2891   c2.8242-2.5898,6.082-4.584,9.6758-5.9258c1.7812-0.666,2.8516-2.4941,2.5508-4.373l-0.6367-4.0293   c-0.1133-0.7285,0.0586-1.457,0.4883-2.0488c0.4336-0.5957,1.0781-0.9883,1.8164-1.1055c1.5078-0.2539,2.9258,0.793,3.168,2.291   l0.6367,4.0254c0.2969,1.8789,1.875,3.2891,3.7773,3.3711c3.8359,0.166,7.5508,1.0547,11.0352,2.6445   c1.7344,0.793,3.7773,0.2539,4.8945-1.2871l2.3984-3.2969c0.4336-0.5977,1.0703-0.9902,1.793-1.1055   C96.2773,23.24,97,23.4255,97.6055,23.865c0.5977,0.4355,0.9922,1.0781,1.1094,1.8105c0.1133,0.7266-0.0625,1.4531-0.4961,2.0508   l-2.3906,3.2949c-1.1172,1.5391-0.9961,3.6523,0.2891,5.0527c2.5898,2.8223,4.582,6.0781,5.9297,9.6777   c0.668,1.7852,2.5273,2.8535,4.3711,2.5508l4.0234-0.6367c1.5312-0.2656,2.918,0.7676,3.1602,2.3047   c0.1133,0.7305-0.0625,1.4609-0.4961,2.0605c-0.4336,0.5957-1.0703,0.9883-1.7969,1.1035l-4.0234,0.6367   c-1.8789,0.2969-3.2891,1.877-3.3711,3.7793c-0.1641,3.8301-1.0547,7.5449-2.6484,11.0371   C100.4766,70.3181,101.0156,72.365,102.5547,73.4822z"/>
</g>
<path fill="#FF5D5D" d="M200.252,22.1438c-1.0234,0-2.0469-0.3906-2.8281-1.1714c-1.5625-1.5625-1.5625-4.0952,0-5.6572  l14.1426-14.1421c1.5605-1.5615,4.0938-1.5615,5.6562,0c1.5625,1.5625,1.5625,4.0952,0,5.6572l-14.1426,14.1421  C202.2998,21.7532,201.2754,22.1438,200.252,22.1438z"/>
<path fill="#FF5D5D" d="M214.3945,22.1423c-1.0234,0-2.0479-0.3906-2.8281-1.1714L197.4238,6.8284  c-1.5625-1.5625-1.5625-4.0947,0-5.6572c1.5605-1.5615,4.0957-1.5615,5.6562,0l14.1426,14.1426  c1.5625,1.5625,1.5625,4.0947,0,5.6572C216.4424,21.7517,215.418,22.1423,214.3945,22.1423z"/>
<path fill="#00D40B" d="M142.252,42.1438c-7.7197,0-14-6.2803-14-14s6.2803-14,14-14s14,6.2803,14,14  S149.9717,42.1438,142.252,42.1438z M142.252,22.1438c-3.3086,0-6,2.6914-6,6s2.6914,6,6,6s6-2.6914,6-6  S145.5605,22.1438,142.252,22.1438z"/>
<path fill="#FFC504" d="M179.5664,220.7693c-1.0234,0-2.0469-0.3906-2.8281-1.1714l-11.3145-11.3135  c-0.75-0.75-1.1719-1.7676-1.1719-2.8286s0.4219-2.0786,1.1719-2.8286l11.3145-11.3135c1.5625-1.5615,4.0938-1.5615,5.6562,0  l11.3135,11.3135c1.5625,1.5625,1.5625,4.0947,0,5.6572l-11.3135,11.3135C181.6143,220.3787,180.5898,220.7693,179.5664,220.7693z   M173.9092,205.4558l5.6572,5.6567l5.6562-5.6567l-5.6562-5.6567L173.9092,205.4558z"/>
</svg>