<?xml version="1.0" encoding="UTF-8" standalone="no"?>
<!-- Created with Inkscape (http://www.inkscape.org/) -->

<svg
   width="145"
   height="145"
   viewBox="0 0 38.364565 38.364602"
   version="1.1"
   id="svg5"
   xml:space="preserve"
   xmlns="http://www.w3.org/2000/svg"
   xmlns:svg="http://www.w3.org/2000/svg"><defs
     id="defs2"><rect
       x="142.40157"
       y="139.97263"
       width="130.91628"
       height="135.09853"
       id="rect42303" /><clipPath
       clipPathUnits="userSpaceOnUse"
       id="clipPath65681"><g
         id="use65683"
         style="display:inline" /></clipPath><clipPath
       clipPathUnits="userSpaceOnUse"
       id="clipPath66439"><g
         id="use66441"
         style="display:inline" /></clipPath></defs><path
     id="path96895"
     clip-path="none"
     style="display:inline;opacity:1;color:#000000;font-variation-settings:normal;vector-effect:none;fill:#579cd3;fill-opacity:1;stroke-width:0.491203;stroke-linecap:butt;stroke-linejoin:miter;stroke-miterlimit:4;stroke-dasharray:none;stroke-dashoffset:0;stroke-opacity:1;-inkscape-stroke:none;stop-color:#000000;stop-opacity:1"
     d="m 6.5618734,10.753349 c -2.566171,0 -4.6627645,2.09608 -4.6627645,4.662248 0,2.566172 2.0965935,4.663798 4.6627645,4.663798 1.70345,0 3.1997805,-0.92449 4.0137086,-2.296501 l 2.271179,0.926042 c -0.271008,0.876259 -0.417029,1.806885 -0.417029,2.77089 0,1.939313 0.590941,3.743603 1.60197,5.242057 l 1.096574,-1.169954 c -0.720546,-1.185608 -1.135332,-2.579427 -1.135332,-4.072103 0,-1.380952 0.358675,-2.674699 0.982369,-3.799768 -0.371457,-0.391837 -0.732139,-0.800719 -1.075386,-1.241268 -0.185182,0.290149 -0.354924,0.591208 -0.50798,0.901754 l -2.274796,-0.928109 c 0.07061,-0.3214 0.108004,-0.65494 0.108004,-0.996838 0,-2.566168 -2.0971093,-4.662248 -4.6632816,-4.662248 z m 0,1.562695 c 1.7212075,0 3.1000691,1.378349 3.1000691,3.099553 0,1.721208 -1.3788616,3.100069 -3.1000691,3.100069 -1.7212048,0 -3.1000692,-1.378861 -3.1000692,-3.100069 0,-1.721204 1.3788644,-3.099553 3.1000692,-3.099553 z m 23.0797286,8.768974 c 0.0065,0.131581 0.01912,0.261569 0.01912,0.394808 0,4.335792 -3.49835,7.834664 -7.834147,7.834664 -1.483867,0 -2.869499,-0.41009 -4.050399,-1.122929 l -1.083655,1.155485 c 1.476792,0.967124 3.241134,1.530139 5.134054,1.530139 2.628133,0 5.006845,-1.086286 6.714319,-2.831868 l 0.84801,0.763777 c -0.362881,0.618868 -0.571542,1.338183 -0.571542,2.103748 0,2.299644 1.880462,4.17959 4.180107,4.17959 2.299644,0 4.18114,-1.879946 4.18114,-4.17959 0,-2.299646 -1.881496,-4.18114 -4.18114,-4.18114 -1.004805,0 -1.929203,0.359188 -2.652034,0.955497 l -0.858346,-0.774113 c 1.092521,-1.535382 1.737362,-3.41008 1.737362,-5.43326 0,-0.02548 -0.0019,-0.05053 -0.0021,-0.07597 -0.496773,-0.135365 -1.016921,-0.248246 -1.580782,-0.318843 z m -12.32948,3.912939 -5.522661,5.793445 c -0.445512,-0.251858 -0.958476,-0.395841 -1.503267,-0.395841 -1.6905042,0 -3.0778485,1.387342 -3.0778485,3.077848 0,1.690504 1.3873443,3.077332 3.0778485,3.077332 1.690505,0 3.077848,-1.386828 3.077848,-3.077332 0,-0.61542 -0.183803,-1.190554 -0.499194,-1.673283 L 18.375106,26.0196 a 5.8776085,5.7956094 0 0 1 -1.062984,-1.021643 z m 15.685347,3.297474 c 1.454672,0 2.617411,1.162738 2.617411,2.617411 0,1.454669 -1.162739,2.616894 -2.617411,2.616894 -1.454671,0 -2.616894,-1.162225 -2.616894,-2.616894 0,-1.454673 1.162223,-2.617411 2.616894,-2.617411 z M 10.286194,31.95929 c 0.845533,0 1.514636,0.668586 1.514636,1.514119 0,0.845532 -0.669103,1.513603 -1.514636,1.513603 -0.8455324,0 -1.5141196,-0.668071 -1.5141196,-1.513603 0,-0.845533 0.6685872,-1.514119 1.5141196,-1.514119 z"
     transform="translate(-1.2368778,-0.11833067)" /><path
     id="path91788"
     clip-path="none"
     style="display:inline;opacity:1;fill:#4d8dc9;fill-opacity:1;stroke:#4d8dc9;stroke-width:0;stroke-linecap:round;stroke-linejoin:round;stroke-dasharray:none;stroke-opacity:1"
     d="m 42.616862,29.457282 a 12.571292,12.571292 0 0 0 -12.571845,12.570794 12.571292,12.571292 0 0 0 12.571845,12.571846 12.571292,12.571292 0 0 0 4.885662,-1.011008 l -5.047675,-8.275326 -2.632198,0.0032 v 3.198194 a 1.425,1.425 0 0 1 -1.42551,1.424458 1.425,1.425 0 0 1 -1.424459,-1.424458 V 35.791599 a 1.4251425,1.4251425 0 0 1 1.424459,-1.426563 h 5.794621 c 0,0 0.01975,-0.0011 0.05786,-0.0011 0.26682,0 1.408049,0.03623 2.590116,0.597557 1.350934,0.641518 2.822991,2.254342 2.827877,4.721544 0.0047,2.440913 -1.328165,4.084121 -2.597481,4.824643 -0.495478,0.289063 -0.989017,0.47367 -1.407626,0.592297 l 4.317562,7.080211 A 12.571292,12.571292 0 0 0 55.187656,42.028076 12.571292,12.571292 0 0 0 42.616862,29.457282 Z m -2.794211,7.757723 v 5.249666 l 4.558478,-0.0042 c 0.01164,-9.79e-4 0.632688,-0.05096 1.254029,-0.413451 0.627153,-0.365882 1.186595,-0.824405 1.183541,-2.357615 -0.0029,-1.506928 -0.541981,-1.841424 -1.201426,-2.154573 -0.659441,-0.313063 -1.371857,-0.319819 -1.371857,-0.319819 a 1.4251425,1.4251425 0 0 1 -0.0263,0 z"
     transform="matrix(0.49120343,0,0,0.49120343,-0.3929443,0.61122399)" /><path
     id="path2"
     clip-path="none"
     style="display:inline;opacity:1;color:#000000;font-variation-settings:normal;vector-effect:none;fill:#4d8dc9;fill-opacity:1;stroke-width:0.491203;stroke-linecap:butt;stroke-linejoin:miter;stroke-miterlimit:4;stroke-dasharray:none;stroke-dashoffset:0;stroke-opacity:1;-inkscape-stroke:none;stop-color:#000000;stop-opacity:1"
     d="m 21.46484,1.9192627 c -1.61748,0 -2.94504,1.3275572 -2.94504,2.9450399 0,1.371615 0.954803,2.5347128 2.231388,2.8566732 l -0.121439,8.0212162 a 5.8776085,5.7956094 0 0 1 1.273307,-0.148829 5.8776085,5.7956094 0 0 1 0.201538,0.0047 L 22.225,7.7085734 c 1.253328,-0.3381024 2.18488,-1.4887555 2.18488,-2.8437541 0,-1.6174826 -1.327557,-2.945557 -2.94504,-2.9455566 z m 0,1.5637288 c 0.772514,0 1.381827,0.6087992 1.381827,1.3813111 0,0.7725119 -0.609313,1.3828613 -1.381827,1.3828613 -0.772511,0 -1.382345,-0.6103494 -1.382345,-1.3828613 0,-0.7725119 0.609834,-1.3813111 1.382345,-1.3813111 z m 14.453381,5.1020142 c -1.650588,0 -3.006018,1.3549133 -3.006018,3.0055013 0,0.345631 0.05935,0.678578 0.168465,0.98857 l -6.817672,4.924764 a 5.8776085,5.7956094 0 0 1 0.850078,1.204061 l 6.782531,-4.900476 c 0.535345,0.489237 1.246343,0.789099 2.022616,0.789099 1.650588,0 3.004468,-1.355433 3.004468,-3.006018 0,-1.650588 -1.35388,-3.0055018 -3.004468,-3.0055013 z m 0,1.5637293 c 0.805615,0 1.441773,0.636154 1.441773,1.441772 0,0.805616 -0.636158,1.442289 -1.441773,1.442289 -0.805616,0 -1.442289,-0.636673 -1.442289,-1.442289 0,-0.805618 0.636673,-1.441772 1.442289,-1.441772 z m -12.563057,2.058789 -0.0072,1.585433 c 1.332109,0.260828 2.541871,0.8575 3.537768,1.699121 l 1.303797,-0.920874 c -1.319796,-1.216154 -2.987288,-2.060222 -4.83433,-2.36368 z M 19.61689,12.3455 c -2.391411,0.578679 -4.428721,2.074827 -5.716963,4.09329 0.343247,0.440549 0.703929,0.849431 1.075386,1.241268 0.986684,-1.77986 2.642531,-3.13421 4.63486,-3.71812 z m 10.766785,5.250842 -1.300696,0.918807 c 0.32521,0.797891 0.513672,1.664641 0.558623,2.569869 0.563861,0.0706 1.084009,0.183478 1.580782,0.318843 -0.01086,-1.356 -0.308774,-2.645013 -0.838709,-3.807519 z"
     transform="translate(-1.2368778,-0.11833067)" /></svg>
